<svg height="512" viewBox="0 0 36 58" width="512" xmlns="http://www.w3.org/2000/svg"><g id="Page-1" fill="none" fill-rule="evenodd"><g id="073---Zombie" fill-rule="nonzero" transform="translate(-1)"><path id="Shape" d="m35 51v6c0 .5522847-.4477153 1-1 1h-30c-.55228475 0-1-.4477153-1-1v-6c0-4.9705627 4.02943725-9 9-9h14c4.9705627 0 9 4.0294373 9 9z" fill="#dd4c3c"/><path id="Shape" d="m10 50v8h-2v-8c0-.5522847.44771525-1 1-1s1 .4477153 1 1z" fill="#b73a2b"/><path id="Shape" d="m30 50v8h-2v-8c0-.5522847.4477153-1 1-1s1 .4477153 1 1z" fill="#b73a2b"/><path id="Shape" d="m16.85 51.8h.01l4.81 2.09c.7138525.2376139 1.4998596.0881436 2.0766675-.3949075.576808-.4830512.8619401-1.2306127.7533325-1.9750925l-.48-3.38z" fill="#65d4b0"/><path id="Shape" d="m15 53c-.5522847 0-1-.4477153-1-1s.4477153-1 1-1c.056 0 5.808-.078 9.2-4.6.2143594-.2858125.5649147-.4355547.9196152-.3928203.3547006.0427344.6596589.2714531.8.6.1403412.3285469.0947442.7070078-.1196152.9928203-4 5.338-10.525 5.4-10.8 5.4z" fill="#b73a2b"/><path id="Shape" d="m15.88 36.59v.01c-.2292184 1.9146744-.8706011 3.756944-1.88 5.4 0 0 1 3 5 3s5-3 5-3c-1.0093989-1.643056-1.6507816-3.4853256-1.88-5.4v-.01z" fill="#46a994"/><path id="Shape" d="m31.75 9.57c.0035495.14695305-.0031334.29397496-.02.44-.0795092-.01162552-.1596633-.01830502-.24-.02l-12.49 1.01c-.6006613-3.45187573-.6815565-6.97418817-.24-10.45 1.8640859-1.02795386 4.1959632-.58258629 5.55 1.06.5406641-.21663465 1.1175515-.32861867 1.7-.33 2.4622759.00220535 4.4577946 1.99772408 4.46 4.46-.0041668.21452236-.0242217.42844121-.06.64.8581163.83943143 1.341251 1.98958045 1.34 3.19z" fill="#f27b76"/><path id="Shape" d="m37 22c.0006602 1.2791938-.6114389 2.4813065-1.6463113 3.2332215-1.0348725.751915-2.367289.9626434-3.5836887.5667785-1.71 5.61-5.76 11.2-12.76 11.2s-11.07-5.59-12.78-11.2c-1.50454504.4944607-3.15914398.0546901-4.21964514-1.1215261-1.06050117-1.1762161-1.32718199-2.8673628-.68010346-4.3128511.64707854-1.4454883 2.08605313-2.3730917 3.6697486-2.3656228v-3.95c.0340804-7.18996133 5.4368921-13.21980836 12.58-14.04.3603024-.03528579.7189104.08197738.988757.323319.2698465.24134162.4262522.58468925.431243.946681v2.97c-.0050616.50290724.1904222.9871137.5432233 1.34554459s.8338524.56155531 1.3367767.56445541c.5200543-.00959503 1.0216388.19276817 1.3894353.56056466s.5701597.86938106.5605647 1.38943534c.0010211.50351161.2035492.98566371.5623934 1.33887161.3588442.35320791.8441419.54807811 1.3476066.54112839 7.454 0 6.762-.009 6.99.02.5176309.1043174.9207375.511376 1.02 1.03.2886178 2.308072.3722779 4.6371688.25 6.96 1.060866 0 2.0782816.4214274 2.8284271 1.1715729s1.1715729 1.7675611 1.1715729 2.8284271z" fill="#65d4b0"/><circle id="Oval" cx="24.5" cy="17.5" fill="#e3e7e8" r="3.5"/><circle id="Oval" cx="13.5" cy="17.5" fill="#e3e7e8" r="3.5"/><path id="Shape" d="m21.983 25h-5.983c-1.1045695 0-2 .8954305-2 2v1c0 1.1045695.8954305 2 2 2h.989l.011 2.006c.0032997.5499402.4500499.9940099 1 .994.2662593.0000048.5215268-.1061753.7092366-.2950113.1877098-.1888361.292361-.4447342.2907634-.7109887l-.011-1.994h2l.011 3c0 .5522847.4477153 1 1 1s1-.4477153 1-1l-.014-3.275c.6167434-.3539316.99791-1.0099194 1-1.721v-1.004c.0000006-.5309532-.2111248-1.0401162-.5868467-1.4152753s-.8852007-.5855211-1.4161533-.5847247z" fill="#802d40"/><path id="Shape" d="m9.481 12c-.1035246-.0002898-.20639054-.0164786-.305-.048-.25266517-.0809568-.46280144-.2590044-.58414839-.4949463-.12134695-.235942-.14395662-.5104361-.06285161-.7630537.54116274-1.68512961 1.4739865-3.21801744 2.722-4.473.8497223-.85223529 1.8283819-1.56530698 2.9-2.113.492638-.25046111 1.0950388-.05413797 1.3455.43850002.2504611.49263798.054138 1.09503884-.4385 1.34549998-.886937.4511761-1.6969419 1.03977966-2.4 1.744-1.0239755 1.02944086-1.788947 2.28725693-2.232 3.67-.1321233.4111007-.51320019.6909603-.945.694z" fill="#e3e7e8"/><circle id="Oval" cx="14" cy="18" fill="#3f5c6c" r="2"/><circle id="Oval" cx="24" cy="18" fill="#3f5c6c" r="2"/><g fill="#e3e7e8"><circle id="Oval" cx="13" cy="17" r="1"/><circle id="Oval" cx="23" cy="17" r="1"/></g></g></g></svg>