<svg height="512" viewBox="0 0 38 60" width="512" xmlns="http://www.w3.org/2000/svg"><g id="Page-1" fill="none" fill-rule="evenodd"><g id="073---Zombie" fill-rule="nonzero"><path id="Shape" d="m31.75 10.57c.0035495.146953-.0031334.293975-.02.44-.0795092-.0116255-.1596633-.018305-.24-.02h-6.75c-.5034647.0069497-.9887624-.1879205-1.3476066-.5411284s-.5613723-.83535999-.5623934-1.3388716c.009595-.52005428-.1927682-1.02163885-.5605647-1.38943534s-.869381-.57015969-1.3894353-.56056466c-.5029243-.0029001-.9839756-.20602452-1.3367767-.56445541s-.5482849-.84263735-.5432233-1.34554459v-2.97c.0001554-.26274253-.0839647-.51860781-.24-.73 1.8640859-1.02795386 4.1959632-.58258629 5.55 1.06.5406641-.21663465 1.1175515-.32861867 1.7-.33 2.4622759.00220535 4.4577946 1.99772408 4.46 4.46-.0041668.21452236-.0242217.42844121-.06.64.8581163.83943143 1.341251 1.98958045 1.34 3.19z" fill="#e6314c"/><path id="Shape" d="m30.41 7.38c.0357783-.21155879.0558332-.42547764.06-.64-.0022054-2.46227592-1.9977241-4.45779465-4.46-4.46-.515869.00516486-1.0271231.09781277-1.512.274 1.7764253.62614891 2.9665827 2.30246076 2.972 4.186-.0041668.21452236-.0242217.42844121-.06.64.8581163.83943143 1.341251 1.98958045 1.34 3.19.0023369.1402579-.0040085.280526-.019.42h2.759c.0803367.001695.1604908.0083745.24.02.0168666-.146025.0235495-.293047.02-.44.001251-1.20041955-.4818837-2.35056857-1.34-3.19z" fill="#b2193b"/><path id="Shape" d="m37 23c0 2.209139-1.790861 4-4 4-.4181162.0002681-.8335086-.0672754-1.23-.2-1.44 4.72-4.54 9.43-9.65 10.8-1.014553.269582-2.0602497.4040767-3.11.4-1.0571331.00646-2.1101964-.1314812-3.13-.41-5.12-1.37-8.21-6.08-9.65-10.79-.39649138.1327246-.81188378.2002681-1.23.2-2.209139 0-4-1.790861-4-4s1.790861-4 4-4v-3.95c.02913956-7.19186352 5.4344609-13.22451154 12.58-14.04.4624043-.04882045.9146806.15815347 1.18.54.1560353.21139219.2401554.46725747.24.73v2.97c-.0050616.50290724.1904222.9871137.5432233 1.34554459s.8338524.56155531 1.3367767.56445541c.5200543-.00959503 1.0216388.19276817 1.3894353.56056466s.5701597.86938106.5605647 1.38943534c.0010211.50351161.2035492.9856637.5623934 1.3388716s.8441419.5480781 1.3476066.5411284h6.75c.0803367.001695.1604908.0083745.24.02.5176309.1043174.9207375.511376 1.02 1.03.1795611.9930085.2632793 2.0009748.25 3.01v3.95h.01c2.2052328.0055131 3.9900069 1.7947604 3.99 4z" fill="#ffd7a9"/><path id="Shape" d="m15.76 1.55c.1560353.21139219.2401554.46725747.24.73v2.97c-.0050616.50290724.1904222.9871137.5432233 1.34554459s.8338524.56155531 1.3367767.56445541c.5200543-.00959503 1.0216388.19276817 1.3894353.56056466s.5701597.86938106.5605647 1.38943534c.0010211.50351161.2035492.9856637.5623934 1.3388716s.8441419.5480781 1.3476066.5411284h3c-.5034647.0069497-.9887624-.1879205-1.3476066-.5411284s-.5613723-.83535999-.5623934-1.3388716c.009595-.52005428-.1927682-1.02163885-.5605647-1.38943534s-.869381-.57015969-1.3894353-.56056466c-.5029243-.0029001-.9839756-.20602452-1.3367767-.56445541s-.5482849-.84263735-.5432233-1.34554459v-2.97c.0001554-.26274253-.0839647-.51860781-.24-.73-.2653194-.38184653-.7175957-.58882045-1.18-.54-.6669301.07416495-1.3274192.19783953-1.976.37.0570938.05177231.109313.10867788.156.17z" fill="#d6bb93"/><path id="Shape" d="m33.01 19h-.01v-3.95c.0132793-1.0090252-.0704389-2.0169915-.25-3.01-.0992625-.518624-.5023691-.9256826-1.02-1.03-.0795092-.0116255-.1596633-.018305-.24-.02h-3c.0803367.001695.1604908.0083745.24.02.5176309.1043174.9207375.511376 1.02 1.03.1795611.9930085.2632793 2.0009748.25 3.01v3.95h.01c2.209139.0027615 3.9977614 1.795861 3.9949999 4.005-.0027614 2.209139-1.7958609 3.9977614-4.0049999 3.995-.4181162.0002681-.8335086-.0672754-1.23-.2-1.44 4.72-4.54 9.43-9.65 10.8-.5282099.1379953-1.0655656.2382482-1.608.3.4975023.0637945.9984321.0971898 1.5.1 1.0497503.0040767 2.095447-.130418 3.11-.4 5.11-1.37 8.21-6.08 9.65-10.8.3958551.1325114.8105548.200052 1.228.2 2.209139.0027614 4.0022385-1.785861 4.0049999-3.995.0027615-2.209139-1.7858609-4.0022385-3.9949999-4.005z" fill="#d6bb93"/><path id="Shape" d="m24 43s-1 3-5 3-5-3-5-3c1.0093989-1.643056 1.6507816-3.4853256 1.88-5.4v-.01c1.0198036.2785188 2.0728669.41646 3.13.41 1.0497503.0040767 2.095447-.130418 3.11-.4.2292184 1.9146744.8706011 3.756944 1.88 5.4z" fill="#d6bb93"/><path id="Shape" d="m35 52v6c0 .5522847-.4477153 1-1 1h-30c-.55228475 0-1-.4477153-1-1v-6c0-4.9705627 4.02943725-9 9-9h2s1 3 5 3 5-3 5-3h2c4.9705627 0 9 4.0294373 9 9z" fill="#02a0eb"/><path id="Shape" d="m26 43h-2l-.021.055c4.5638119.4994047 8.0201864 4.3539453 8.021 8.945v6c0 .5522847-.4477153 1-1 1h3c.5522847 0 1-.4477153 1-1v-6c0-4.9705627-4.0294373-9-9-9z" fill="#0377b3"/><path id="Shape" d="m21.67 54.89-4.81-2.09c2.7058145-.4560034 5.2056769-1.733866 7.16-3.66l.48 3.38c.1086076.7444798-.1765245 1.4920413-.7533325 1.9750925-.5768079.4830511-1.362815.6325214-2.0766675.3949075z" fill="#ffd7a9"/><circle id="Oval" cx="24.5" cy="18.5" fill="#37474f" r="3.5"/><circle id="Oval" cx="13.5" cy="18.5" fill="#37474f" r="3.5"/><rect id="Rectangle-path" fill="#37474f" height="5" rx="2" width="9.983" x="14" y="26"/><path id="Shape" d="m22 35c-.5499501.0000099-.9967003-.4440598-1-.994l-.017-3c-.0015976-.2662545.1030536-.5221526.2907634-.7109887.1877098-.188836.4429773-.2950161.7092366-.2950113.5499501-.0000099.9967003.4440598 1 .994l.017 3c.0015957.2653902-.1023706.52053-.2889987.7092214-.1866282.1886914-.4406096.2954564-.7060013.2967786z" fill="#e6314c"/><path id="Shape" d="m18 34c-.5491756.0000176-.9956066-.442842-1-.992l-.017-2c-.0021302-.265219.101189-.5204207.2872269-.7094592s.4395539-.2964275.7047731-.2985408h.008c.5491756-.0000176.9956066.442842 1 .992l.017 2c.0021302.265219-.101189.5204207-.2872269.7094592s-.4395539.2964275-.7047731.2985408z" fill="#e6314c"/><path id="Shape" d="m9.481 13c-.1035246-.0002898-.20639054-.0164786-.305-.048-.25266517-.0809568-.46280144-.2590044-.58414839-.4949463-.12134695-.235942-.14395662-.5104361-.06285161-.7630537.54116274-1.6851296 1.4739865-3.21801744 2.722-4.473.8497223-.85223529 1.8283819-1.56530698 2.9-2.113.492638-.25046111 1.0950388-.05413797 1.3455.43850002.2504611.49263798.054138 1.09503884-.4385 1.34549998-.886937.4511761-1.6969419 1.03977966-2.4 1.744-1.0239755 1.02944086-1.788947 2.2872569-2.232 3.67-.1321233.4111007-.51320019.6909603-.945.694z" fill="#ececec"/><g fill="#000"><path id="Shape" d="m24.5 14c-2.4852814 0-4.5 2.0147186-4.5 4.5s2.0147186 4.5 4.5 4.5 4.5-2.0147186 4.5-4.5c-.0027556-2.4841391-2.0158609-4.4972444-4.5-4.5zm0 7c-1.3807119 0-2.5-1.1192881-2.5-2.5s1.1192881-2.5 2.5-2.5 2.5 1.1192881 2.5 2.5-1.1192881 2.5-2.5 2.5z"/><path id="Shape" d="m18 18.5c0-2.4852814-2.0147186-4.5-4.5-4.5s-4.5 2.0147186-4.5 4.5 2.0147186 4.5 4.5 4.5c2.4841391-.0027556 4.4972444-2.0158609 4.5-4.5zm-7 0c0-1.3807119 1.1192881-2.5 2.5-2.5s2.5 1.1192881 2.5 2.5-1.1192881 2.5-2.5 2.5-2.5-1.1192881-2.5-2.5z"/><path id="Shape" d="m26.01 1.28c-.4759643.00033229-.9498897.06217789-1.41.184-1.534247-1.38804662-3.7133893-1.80706798-5.653-1.087-.4318273-.28798083-.9508454-.41570103-1.467-.361-7.65614458.86688309-13.45029274 7.32899166-13.48 15.034v3.05c-2.61721605.5380257-4.34892661 3.0387072-3.93192845 5.6779124s2.83532773 4.4841745 5.49092845 4.1890876c1.81 5.227 5.086 8.843 9.192 10.305-.2315316 1.3062126-.6757629 2.5655998-1.315 3.728h-1.436c-5.52033443.0060624-9.99393763 4.4796656-10 10v6c0 1.1045695.8954305 2 2 2h30c1.1045695 0 2-.8954305 2-2v-6c-.0060624-5.5203344-4.4796656-9.9939376-10-10h-1.436c-.6387341-1.1616526-1.0832632-2.4199132-1.316-3.725 4.106-1.461 7.382-5.078 9.192-10.307 2.6631264.3106206 5.097235-1.5346217 5.5174656-4.1826651.4202306-2.6480433-1.3230147-5.1562098-3.9514656-5.6853349l-.006-3.053c.0108562-1.0781753-.0802155-2.1549635-.272-3.216-.12594-.5994573-.4835503-1.1249108-.995-1.462-.0379698-1.22110931-.4868473-2.39368729-1.274-3.328.007-.1.012-.2.012-.3-.0027566-3.01488446-2.4461155-5.45824341-5.461-5.461zm-2.468 1.971c.2767486.33187853.7353669.44844907 1.137.289.4230703-.17060539.8748275-.25885248 1.331-.26 1.9099915.00220426 3.4577957 1.55000855 3.46 3.46-.004181.16498377-.020559.32943236-.049.492-.0471659.31556321.059086.6346904.286.859.5208195.51336453.865644 1.17850832.985 1.9000003l-5.955-.0000003c-.2531979.00020294-.4959326-.10099656-.674-.281-.1545716-.15306942-.2401432-.36248505-.237-.58.0148019-.79196365-.2932139-1.55587219-.8532203-2.11606715-.5600063-.56019497-1.3238111-.86846808-2.1157797-.85393285-.2186219.00860025-.4300995-.07869362-.579-.239-.1783516-.1777036-.278418-.41923088-.278-.671v-2.97c0-.046-.012-.09-.014-.136 1.2996193-.34714821 2.6830625.08352434 3.556 1.107zm10.458 48.749v6h-4v-7c0-.5522847-.4477153-1-1-1s-1 .4477153-1 1v7h-18v-7c0-.5522847-.44771525-1-1-1s-1 .4477153-1 1v7h-4v-6c.00495988-4.4162219 3.58377808-7.9950401 8-8h1.372c1.1595553 1.9819328 3.3361864 3.1421839 5.628 3 2.2918136.1421839 4.4684447-1.0180672 5.628-3h1.372c4.4162219.0049599 7.9950401 3.5837781 8 8zm-11.136-8.933c-.8299528 1.3109479-2.3172194 2.0549661-3.864 1.933-1.5463992.1188956-3.0321739-.6253379-3.863-1.935.7477062-1.3307653 1.271685-2.7753389 1.551-4.276 1.5289541.2799892 3.0960459.2799892 4.625 0 .2792622 1.5013078.8032378 2.946548 1.551 4.278zm13.136-20.067c0 1.6568542-1.3431458 3-3 3-.3110322-.000088-.6200093-.0504023-.915-.149-.2553795-.0864455-.5349938-.06477-.774.06-.2411077.1239553-.4215552.3404923-.5.6-.961 3.152-4.037 10.489-11.806 10.489s-10.855-7.337-11.817-10.492c-.12848754-.420849-.51697398-.7082559-.957-.708-.10708828-.0004144-.2135133.0168164-.315.051-.29530892.098704-.60463231.1490197-.916.149-1.65685425 0-3-1.3431458-3-3s1.34314575-3 3-3c.55228475 0 1-.4477153 1-1v-3.95c.02758716-6.6834809 5.0498148-12.28998819 11.69-13.05.0771486-.00943941.1544076.01668151.21.071.060156.04949393.0964985.12217884.1.2v2.979c.0019051.78966792.3194771 1.54579155.882 2.1.5336804.53447296 1.2628965.82717119 2.018.81.2472291-.00017339.4848915.0955368.663.267.1763181.17541025.2731585.4153432.268.664-.0146438.75444881.2772626 1.482591.809 2.018.554501.5619678 1.3105219.8791365 2.1.881h6.751c.1434438.0066067.2620913.1139345.283.256.1629192.9242108.23925 1.8616068.228 2.8v3.954c0 .5522847.4477153 1 1 1 1.6560731.001104 2.9980004 1.3439265 2.998 3z"/><path id="Shape" d="m24.2 47.4c-3.392 4.522-9.144 4.6-9.2 4.6-.5522847 0-1 .4477153-1 1s.4477153 1 1 1c.5812113-.0133067 1.1607099-.0684493 1.734-.165l4.62 2c1.0424543.3476031 2.1905905.1299813 3.0335365-.5749874.8429461-.7049686 1.2602077-1.7965129 1.1024635-2.8840126l-.412-2.906c.247-.276.49-.564.722-.873.3313708-.4418278.2418278-1.0686292-.2-1.4s-1.0686292-.2418278-1.4.2zm-1.1 6.33c-.2829959.2475502-.6703639.3385854-1.034.243l-2.221-.965c1.2315828-.4646344 2.3908498-1.1020124 3.443-1.893l.22 1.547c.0633369.4031967-.0919682.8097307-.408 1.068z"/><path id="Shape" d="m21.983 25h-5.983c-1.6568542 0-3 1.3431458-3 3v1c0 1.6568542 1.3431458 3 3 3h5.983c1.6568542 0 3-1.3431458 3-3v-1c0-1.6568542-1.3431458-3-3-3zm1 4c0 .5522847-.4477153 1-1 1h-5.983c-.5522847 0-1-.4477153-1-1v-1c0-.5522847.4477153-1 1-1h5.983c.5522847 0 1 .4477153 1 1z"/></g></g></g></svg>