<svg height="512" viewBox="0 0 50 60" width="512" xmlns="http://www.w3.org/2000/svg"><g id="Page-1" fill="none" fill-rule="evenodd"><g id="092---Warewolf" fill-rule="nonzero"><path id="Shape" d="m49 58c0 .5522847-.4477153 1-1 1h-46c-.55228475 0-1-.4477153-1-1-.00461562-.7210367.20414108-1.4273302.6-2.03 1.10182087-1.6141989 2.64735502-2.874938 4.45-3.63.1747136-.0786628.29323386-.2456511.30983258-.4365363.01659871-.1908852-.07131915-.3758246-.22983258-.4834637l-1.45-.97c-.15058272-.0965747-.24081523-.2638913-.23878252-.4427703.00203272-.1788789.09604409-.3441018.24878252-.4372297 1.7241126-.9845131 3.55627908-1.7663717 5.46-2.33.1764917-.0524173.3123183-.1939327.3574544-.3724253.0451361-.1784927-.0070943-.3675627-.1374544-.4975747l-.79-.79c-.12636019-.127849-.17945967-.3109466-.14110655-.4865635s.16295107-.319907.33110655-.3834365c3.2165959-1.0478703 6.5681216-1.6238612 9.95-1.71.181124.0025213.3494468-.0931167.44-.25.9160654-1.5833397 1.5043931-3.3347199 1.73-5.15 1.014553.269582 2.0602497.4040767 3.11.4 1.0571331.00646 2.1101964-.1314812 3.13-.41v.01c.2292184 1.9146744.8706011 3.756944 1.88 5.4 3.4727775.0582745 6.9174026.6346257 10.22 1.71.1681555.0635295.2927534.2078196.3311066.3834365.0383531.1756169-.0147464.3587145-.1411066.4865635l-.79.79c-.1303601.130012-.1825905.319082-.1374544.4975747.0451361.1784926.1809627.320008.3574544.3724253 1.9037209.5636283 3.7358874 1.3454869 5.46 2.33.1527384.0931279.2467498.2583508.2487825.4372297.0020327.178879-.0881998.3461956-.2387825.4427703l-1.45.97c-.1585134.1076391-.2464313.2925785-.2298326.4834637s.135119.3578735.3098326.4365363c1.802645.755062 3.3481791 2.0158011 4.45 3.63.3958589.6026698.6046156 1.3089633.6 2.03z" fill="#88562d"/><path id="Shape" d="m22 38c.5015706-.0027356 1.0025049-.0361312 1.5-.1-.5420911-.0618452-1.0791076-.1620972-1.607-.3-.018.123-.04.256-.062.389.056.001.109.011.169.011z" fill="#6d4122"/><path id="Shape" d="m48.4 55.97c-1.1018209-1.6141989-2.647355-2.874938-4.45-3.63-.1747136-.0786628-.2932339-.2456511-.3098326-.4365363s.0713192-.3758246.2298326-.4834637l1.45-.97c.1505827-.0965747.2408152-.2638913.2387825-.4427703-.0020327-.1788789-.0960441-.3441018-.2487825-.4372297-1.7241126-.9845131-3.5562791-1.7663717-5.46-2.33-.1764917-.0524173-.3123183-.1939327-.3574544-.3724253-.0451361-.1784927.0070943-.3675627.1374544-.4975747l.79-.79c.1263602-.127849.1794597-.3109466.1411066-.4865635-.0383532-.1756169-.1629511-.319907-.3311066-.3834365-3.3025974-1.0753743-6.7472225-1.6517255-10.22-1.71-1.0093989-1.643056-1.6507816-3.4853256-1.88-5.4v-.01c-.9585136.2585494-1.9462529.3929814-2.939.4.2529244 1.7779275.8723369 3.4839509 1.819 5.01 3.4727775.0582745 6.9174026.6346257 10.22 1.71.1681555.0635295.2927534.2078196.3311066.3834365.0383531.1756169-.0147464.3587145-.1411066.4865635l-.79.79c-.1303601.130012-.1825905.319082-.1374544.4975747.0451361.1784926.1809627.320008.3574544.3724253 1.9037209.5636283 3.7358874 1.3454869 5.46 2.33.1527384.0931279.2467498.2583508.2487825.4372297.0020327.178879-.0881998.3461956-.2387825.4427703l-1.45.97c-.1585134.1076391-.2464313.2925785-.2298326.4834637s.135119.3578735.3098326.4365363c1.802645.755062 3.3481791 2.0158011 4.45 3.63.3958589.6026698.6046156 1.3089633.6 2.03 0 .5522847-.4477153 1-1 1h3c.5522847 0 1-.4477153 1-1 .0046156-.7210367-.2041411-1.4273302-.6-2.03z" fill="#6d4122"/><path id="Shape" d="m43 16.62-.01 6.39c-.0007601.2889769-.0309153.5771269-.09.86-.391306 1.7336529-1.8765732 3.0032512-3.65 3.12-.5011606.0395472-1.0050802-.0251452-1.48-.19-1.45 4.71-4.54 9.42-9.64 10.79-1.0198036.2785188-2.0728669.41646-3.13.41-1.0497503.0040767-2.095447-.130418-3.11-.4-5.12-1.37-8.22-6.08-9.66-10.8-.4749198.1648548-.9788394.2295472-1.48.19-1.77342676-.1167488-3.25869399-1.3863471-3.65-3.12-.06228296-.2825553-.09578727-.5706924-.1-.86v-6.39c-.00065345-.2094745.10553153-.4048283.28167198-.518206.17614044-.1133778.39792892-.1291333.58832802-.041794 1.35506339.5837811 2.4626137 1.6241 3.13 2.94v-6.05c-.0048544-.1894365.0978003-.3653382.2651221-.4542941s.3705535-.0756773.5248779.0342941l1.45.96c.150797.1026792.3451915.1162336.5087789.0354753.1635874-.0807584.2710365-.2433242.2812211-.4254753.08-1.68.4-5.31 1.69-7.65.0722799-.11898574.1899781-.20332945.3258821-.23353034s.2782468-.00364407.3941179.07353034l2.07 1.39c.1211602.08127312.271238.10699824.4125486.07071577.1413107-.03628247.2604316-.13112616.3274514-.26071577.66-1.3 2.65-4.69 5.75-5.49 3.1.8 5.09 4.19 5.75 5.49.0670198.12958961.1861407.2244333.3274514.26071577.1413106.03628247.2913884.01055735.4125486-.07071577l2.07-1.39c.1158711-.07717441.2582139-.10373123.3941179-.07353034s.2536022.1145446.3258821.23353034c1.29 2.34 1.61 5.97 1.69 7.65.0101846.1821511.1176337.3447169.2812211.4254753.1635874.0807583.3579819.0672039.5087789-.0354753l1.45-.96c.1543244-.1099714.3575561-.12325.5248779-.0342941s.2699765.2648576.2651221.4542941l-.01 6.05c.6733645-1.3150016 1.7835887-2.3545109 3.14-2.94.1903991-.0873393.4121876-.0715838.588328.041794.1761405.1133777.2823255.3087315.281672.518206z" fill="#97522d"/><path id="Shape" d="m42.134 16.058c-.8048531.3605574-1.5301854.8771952-2.134 1.52l-.01 5.432c-.0007601.2889769-.0309153.5771269-.09.86-.391306 1.7336529-1.8765732 3.0032512-3.65 3.12h-.016c-.8883858.03314-1.6764937.5796239-2.019 1.4-1.619 4.14-4.561 7.983-9.085 9.2-.5347728.1441405-1.0796496.2477674-1.63.31.497519.0636225.9984383.0970171 1.5.1 1.0571331.00646 2.1101964-.1314812 3.13-.41 5.1-1.37 8.19-6.08 9.64-10.79.4749198.1648548.9788394.2295472 1.48.19 1.7734268-.1167488 3.258694-1.3863471 3.65-3.12.0590847-.2828731.0892399-.5710231.09-.86l.01-6.39c-.0008507-.208103-.1065483-.401756-.2811152-.5150431-.174567-.113287-.39448-.1309426-.5848848-.0469569z" fill="#783e22"/><path id="Shape" d="m28 24c-.1863875 1.5732047-1.4267953 2.8136125-3 3-1.5732047-.1863875-2.8136125-1.4267953-3-3 0-1.105 1.343-2 3-2s3 .9 3 2z" fill="#37474f"/><circle id="Oval" cx="18" cy="19" fill="#37474f" r="2"/><circle id="Oval" cx="32" cy="19" fill="#37474f" r="2"/><path id="Shape" d="m22 34c-.5522847 0-1-.4477153-1-1v-2c0-.5522847.4477153-1 1-1s1 .4477153 1 1v2c0 .5522847-.4477153 1-1 1z" fill="#ececec"/><path id="Shape" d="m28 34c-.5522847 0-1-.4477153-1-1v-2c0-.5522847.4477153-1 1-1s1 .4477153 1 1v2c0 .5522847-.4477153 1-1 1z" fill="#ececec"/><path id="Shape" d="m15 55c-.2651948-.0000566-.5195073-.1054506-.707-.293l-1.293-1.293c-.7807639-.7809997-.7807639-2.0470003 0-2.828l1.293-1.293c.3923789-.3789722 1.0160848-.3735524 1.4018186.0121814s.3911536 1.0094397.0121814 1.4018186l-1.293 1.293 1.293 1.293c.2859079.2859943.3714219.7160366.216678 1.0896546-.1547439.3736179-.5192821.6172591-.923678.6173454z" fill="#ffd7a9"/><path id="Shape" d="m28 54c-.4043959-.0000863-.7689341-.2437275-.923678-.6173454-.1547439-.373618-.0692299-.8036603.216678-1.0896546l1.293-1.293-1.293-1.293c-.3789722-.3923789-.3735524-1.0160848.0121814-1.4018186s1.0094397-.3911536 1.4018186-.0121814l1.293 1.293c.7807639.7809997.7807639 2.0470003 0 2.828l-1.293 1.293c-.1874927.1875494-.4418052.2929434-.707.293z" fill="#ffd7a9"/><path id="Shape" d="m35 55c-.4043959-.0000863-.7689341-.2437275-.923678-.6173454-.1547439-.373618-.0692299-.8036603.216678-1.0896546l1.293-1.293-1.293-1.293c-.3789722-.3923789-.3735524-1.0160848.0121814-1.4018186s1.0094397-.3911536 1.4018186-.0121814l1.293 1.293c.7807639.7809997.7807639 2.0470003 0 2.828l-1.293 1.293c-.1874927.1875494-.4418052.2929434-.707.293z" fill="#ffd7a9"/><path id="Shape" d="m20 51.828c-.5522847 0-1-.4477153-1-1v-1.828c0-1.1045695.8954305-2 2-2h1.829c.5522847 0 1 .4477153 1 1s-.4477153 1-1 1h-1.829v1.828c0 .5522847-.4477153 1-1 1z" fill="#ffd7a9"/><g fill="#000"><path id="Shape" d="m25 28c2.1253251-.1903178 3.8096822-1.8746749 4-4 0-1.683-1.757-3-4-3s-4 1.317-4 3c.1903178 2.1253251 1.8746749 3.8096822 4 4zm0-5c1.221 0 2 .592 2 1 0 .625-.967 2-2 2s-2-1.375-2-2c0-.408.779-1 2-1z"/><path id="Shape" d="m45.122 51.786.746-.5c.4464498-.2900989.7082809-.7928904.69-1.325-.0113116-.5165551-.2904804-.9900435-.737-1.25-1.5606854-.9013587-3.2121719-1.6354271-4.927-2.19l.232-.233c.3697922-.3700335.5248916-.9033533.4112144-1.4139888-.1136771-.5106355-.4803712-.9277942-.9722144-1.1060112-3.2287742-1.0634027-6.594142-1.6551713-9.992-1.757-.6395424-1.166251-1.0827983-2.4298006-1.312-3.74 4.1-1.465 7.368-5.081 9.176-10.3.2907298.0338663.5839367.0412299.876.022 2.2190211-.1554689 4.0747291-1.7451474 4.569-3.914.07591-.3510024.1154521-.7088921.118-1.068l.005-6.4c-.0017684-.5489566-.2815909-1.0596211-.7433244-1.3565363s-1.0424696-.3396284-1.5426756-.1134637c-.6173649.2786448-1.1953362.6373972-1.719 1.067v-3.261c-.0006343-.5555136-.3066319-1.0656941-.7964088-1.3278282-.489777-.2621342-1.0840109-.2337678-1.5465912.0738282l-.739.493c-.107955-2.49942845-.7091556-4.95282993-1.769-7.219-.2012386-.35970295-.5433608-.61919395-.944-.716-.4120209-.10103852-.8475397-.02409686-1.2.212l-1.619 1.08c-.936-1.686-3-4.7-6.134-5.511-.1638925-.04300529-.3361075-.04300529-.5 0-3.132.811-5.2 3.825-6.134 5.511l-1.618-1.081c-.3532163-.23424061-.7880655-.31070159-1.2-.211-.4010839.09701364-.7435584.35685939-.945.717-1.0591718 2.26600337-1.6600188 4.71900896-1.768 7.218l-.739-.493c-.4628928-.3104732-1.0592935-.3403011-1.5508544-.077563-.4915609.262738-.79811331.775192-.7971456 1.332563v3.26c-.52293343-.4277476-1.09988723-.7848134-1.716-1.062-.49998646-.2258245-1.0803455-.1829062-1.54167469.1140089-.46132919.296915-.74077544.807374-.74232531 1.3559911v6.4c.00167785.3575705.0395374.7140533.113 1.064.49496938 2.1688304 2.35085991 3.7583174 4.57 3.914.2920633.0192299.5852702.0118663.876-.022 1.809 5.224 5.083 8.841 9.187 10.3-.2284093 1.3089978-.6713657 2.5713051-1.311 3.736-3.4013081.1103663-6.7696628.7036331-10.004 1.762-.49057092.1788859-.85593153.5957523-.96894843 1.1055436s.04193909 1.042008.41094843 1.4114564l.233.234c-1.70989522.5519619-3.35696367 1.2823164-4.914 2.179-.4529199.2591922-.73737172.7363128-.75 1.258-.01883993.5289211.23970549 1.0293316.682 1.32l.754.505c-1.65282733.8456015-3.06624154 2.0936016-4.11 3.629-.50645189.7676644-.77373207 1.6683429-.768 2.588 0 1.1045695.8954305 2 2 2h46c1.1045695 0 2-.8954305 2-2 .0050994-.9190886-.2625196-1.8190401-.769-2.586-1.0431844-1.5352772-2.4563371-2.783006-4.109-3.628zm-31.931-25.278c-.1283796-.4204955-.5163436-.7078161-.956-.708-.1074208-.0004878-.2141867.0167434-.316.051-.3556277.1186428-.730886.1672056-1.105.143-1.32638693-.0881452-2.43878773-1.0340311-2.739-2.329-.04736367-.2155272-.07249519-.4353442-.075-.656v-5.763c.82814935.4770966 1.51751309 1.1619795 2 1.987v1.767c0 .5522847.4477153 1 1 1s1-.4477153 1-1v-1.973c0-.01 0-.018 0-.028v-5.13l.685.456c.4501702.3049995 1.0301504.3424894 1.5158406.0979838.4856901-.2445055.8010242-.7327135.8241594-1.2759838.0637454-2.2956275.5116101-4.56435801 1.325-6.712l1.611 1.075c.3570195.23970619.7997475.3146565 1.2157724.20582056s.7653311-.39098969.9592276-.77482056c.488-.956 2.247-4.061 4.864-4.9 2.617.839 4.376 3.944 4.863 4.9.1940224.38426385.5437833.6666511.9603083.77532643.416525.10867534.8596651.03316348 1.2166917-.20732643l1.61-1.074c.8129575 2.14772682 1.2604808 4.41644 1.324 6.712.0231352.5432703.3384693 1.0314783.8241594 1.2759838.4856902.2445056 1.0656704.2070157 1.5158406-.0979838l.686-.456v5.131 2c0 .5522847.4477153 1 1 1s1-.4477153 1-1v-1.761c.4763457-.8315668 1.1670058-1.5201549 2-1.994v5.761c-.0009691.2211391-.024423.4416064-.07.658-.299832 1.2953632-1.4123223 2.2417313-2.739 2.33-.3723657.0232046-.7457343-.0249939-1.1-.142-.2557223-.0882854-.5365649-.0669327-.776.059-.2411077.1239553-.4215552.3404923-.5.6-.968 3.152-4.043 10.489-11.81 10.489s-10.852-7.337-11.814-10.492zm-11.19113509 31.492c-.00515799-.5236051.14520078-1.0369828.43213509-1.475.99367934-1.4503485 2.38460708-2.5832984 4.006-3.263.51101142-.216646.86251071-.6955445.916-1.248.05675098-.561772-.19989803-1.1092643-.668-1.425l-.808-.541c1.45544408-.7578885 2.97920874-1.3766354 4.551-1.848.5162062-.1506483.9145014-.5626711 1.0475784-1.0836838.1330769-.5210127-.018845-1.0735718-.3995784-1.4533162l-.252-.252c2.8917133-.8520967 5.8815448-1.326369 8.895-1.411.5273422.0051102 1.0178886-.2696566 1.289-.722.8201418-1.3854135 1.3869923-2.9058189 1.674-4.49 1.5331401.282003 3.1048599.282003 4.638 0 .3098046 1.6915001.9393867 3.3083889 1.855 4.764.1852276.2798024.4984428.4480523.834.448 3.1040988.060463 6.1862695.5346432 9.165 1.41l-.253.254c-.3787404.3791007-.5302109.9294419-.3987955 1.4489528.1314153.5195109.5263504.9316335 1.0397955 1.0850472 1.5744976.4722493 3.1009279 1.0919954 4.559 1.851l-.813.544c-.4624418.3130868-.7172443.8535185-.6645431 1.4094846s.4045102 1.0388959.9175431 1.2595154c1.6210149.6793972 3.0116146 1.8120155 4.005 3.262.2875881.4381383.4383158.9519353.4331359 1.476z"/><path id="Shape" d="m31 31c0-.5522847-.4477153-1-1-1h-10c-.5522847 0-1 .4477153-1 1s.4477153 1 1 1h10c.5522847 0 1-.4477153 1-1z"/><path id="Shape" d="m21 19c0-1.6568542-1.3431458-3-3-3s-3 1.3431458-3 3 1.3431458 3 3 3 3-1.3431458 3-3zm-3 1c-.5522847 0-1-.4477153-1-1s.4477153-1 1-1 1 .4477153 1 1-.4477153 1-1 1z"/><path id="Shape" d="m32 22c1.6568542 0 3-1.3431458 3-3s-1.3431458-3-3-3-3 1.3431458-3 3 1.3431458 3 3 3zm0-4c.5522847 0 1 .4477153 1 1s-.4477153 1-1 1-1-.4477153-1-1 .4477153-1 1-1z"/></g></g></g></svg>