<svg height="512" viewBox="0 0 58 58" width="512" xmlns="http://www.w3.org/2000/svg"><g id="Page-1" fill="none" fill-rule="evenodd"><g id="028---Anti-Ghost-Sign" fill-rule="nonzero" transform="translate(-1 -1)"><path id="Shape" d="m3.29 18.68c-1.51908197 3.5802388-2.29804403 7.4308285-2.29 11.32-.00227168 2.1674374.24264404 4.3280638.73 6.44l1.02 3.51c4.56377536 12.4817555 17.0278049 20.2639668 30.2459796 18.8847919s23.8072515-11.5667308 25.6961043-24.7217489c1.8888527-13.1550181-5.4059778-25.91042053-17.7020839-30.953043l-3.67-1.23c-6.1944054-1.6024603-12.7437928-1.124608-18.64 1.36z" fill="#dd4c3c"/><path id="Shape" d="m13.8 49.03 35.23-35.23c8.4487672 9.9185084 7.859754 24.6637682-1.3532389 33.8767611s-23.9582527 9.8020061-33.8767611 1.3532389z" fill="#35495e"/><path id="Shape" d="m5.76 23.91c-.50773997 1.9900925-.76307844 4.03616-.76 6.09-.00307346 1.9120629.21504283 3.8180638.65 5.68l1.23 3.83h.01c.9953531 2.4328949 2.37268144 4.6913083 4.08 6.69l8.37-8.37 18.49-18.49 8.37-8.37c-1.8121973-1.54866324-3.8401118-2.82537355-6.02-3.79l-3.78-1.35c-2.0885331-.55191507-4.2397732-.83090402-6.4-.83-2.05384-.00307844-4.0999075.25226003-6.09.76z" fill="#35495e"/><path id="Shape" d="m41.04 21.79c2.3710681 1.6078874 5.0691513 2.6700442 7.9 3.11 3.57.51 2.12 4.95-1.42 5.65s-6.36 3.54-4.95 6.37 2.12 4.95.71 6.36-3.53.71-6.36-.71-5.66 1.42-6.37 4.95-5.14 4.99-5.65 1.42c-.4399558-2.8308487-1.5021126-5.5289319-3.11-7.9z" fill="#e3e7e8"/><path id="Shape" d="m19.34 37.83c-.49-.56-1-1.1-1.52-1.62l-.99-.99c-2.8023295 1.9762675-5.9655317 3.3828902-9.31 4.14-.22.05-.43.1-.63.15h-.01c-1.28586539.3167097-2.60571373.4745542-3.93.47-.06782941.0005788-.13532556-.0095456-.2-.03-.44007664-.0459043-.85033389-.2439596-1.16-.56-.39056643-.3838282-.60424201-.9125848-.59-1.46.01716251-.578678.28325114-1.1217904.73-1.49.36967001-.3083121.83877941-.4717896 1.32-.46.87498352-.0053838 1.74678265-.105976 2.6-.3.34-.0666667.65-.1366667.93-.21 2.62876897-.5892989 5.129105-1.6497395 7.38-3.13l-6.74-6.74c-.52979795-.5245805-1.01794028-1.089622-1.46-1.69-1.16424104-1.5609484-2.00408811-3.339248-2.47-5.23-1.13476183-4.3406445.08706042-8.95852548 3.22-12.17 3.21147452-3.13293958 7.8293555-4.35476183 12.17-3.22 1.890752.46591189 3.6690516 1.30575896 5.23 2.47.600378.44205972 1.1654195.93020205 1.69 1.46l6.66 6.66c.5497972-.691115 1.0509997-1.4195293 1.5-2.18 1.1495236-1.82393144 2.0381413-3.79975931 2.64-5.87.2942746-.99634425.4984288-2.01711508.61-3.05.034859-.30381479.1410839-.59507665.31-.85.4015372-.64894847 1.1418966-1.00743829 1.9-.92 1.0739976.12071352 1.8578196 1.07281375 1.77 2.15v.06c-.1523203 1.34136293-.4233836 2.66656129-.81 3.96-.7110865 2.32020855-1.7194614 4.5386333-3 6.6-.6089189 1.0339301-1.3047654 2.014137-2.08 2.93l1.11 1.11c.52.52 1.06 1.03 1.62 1.52z" fill="#e3e7e8"/><ellipse id="Oval" cx="12.168" cy="18.532" fill="#3f5c6c" rx="2.5" ry="4.5" transform="matrix(.707 -.707 .707 .707 -9.54 14.032)"/><ellipse id="Oval" cx="18.532" cy="12.168" fill="#3f5c6c" rx="2.5" ry="4.5" transform="matrix(.707 -.707 .707 .707 -3.176 16.668)"/><path id="Shape" d="m25.6 25.6c2.931-2.932.939-3.458-1.683-4.615-.7952103-.4030804-1.6698147-.6250612-2.561-.65-.551048.0302262-.9912343.4699818-1.022 1.021.0259727.8911607.2482565 1.7656136.651 2.561 1.16 2.625 1.686 4.617 4.615 1.683z" fill="#2c3e50"/></g></g></svg>