<svg id="Layer_35" enable-background="new 0 0 64 64" height="512" viewBox="0 0 64 64" width="512" xmlns="http://www.w3.org/2000/svg"><g><g><g><path d="m29 55c.52 0 1.01-.13 1.43-.36l6.57-1.28v8.64h-14c.79 0 1.51-.47 1.83-1.2l3.23-5.8v-.01c.31.01.63.01.94.01z" fill="#ff826e"/></g><g><path d="m37.71 47.08c-.12.01-.24.04-.35.06l-5.64 1.26 3.33-6c.1.59.32 1.15.65 1.65z" fill="#ff826e"/></g><g><path d="m44 46v1c-.09 2.93-2.2 5.43-5.1 5.99l-1.9.37-6.57 1.28c.26-.14.49-.32.69-.52.54-.54.88-1.29.88-2.12s-.34-1.58-.88-2.12c-.05-.05-.1-.09-.15-.14l.75-1.34 5.64-1.26c.11-.02.23-.05.35-.06l-2.01-3.03c-.33-.5-.55-1.06-.65-1.65l5.2-9.35c2.06 2.53 3.34 5.61 3.67 8.89.05.55.08 1.1.08 1.66z" fill="#ff826e"/></g><g><path d="m12.64 47.14c-.42-.09-.86-.14-1.3-.14h-2.34l-2.99.11c-.01-.11-.01-.22-.01-.33 0-.52.06-1.03.19-1.53l1.43-5.74c.83-3.3 3.65-5.72 7.04-6.02l1.75-.16c1.1-.1 2.16-.44 3.09-.98l.01-.01c.77 1.57 2.4 2.66 4.28 2.66h2.42c1.32 0 2.52-.54 3.39-1.4.36-.37.67-.79.89-1.26h.01c.93.55 1.99.89 3.09.99l1.75.16c.04 0 .07 0 .11.01l-7.87 14.16c-.26-.19-.55-.34-.85-.44-1.07-1.09-1.73-2.58-1.73-4.22 0 2.86-2 5.25-4.67 5.85z" fill="#ff826e"/></g><g><path d="m20.33 48.85c2.67-.6 4.67-2.99 4.67-5.85 0 1.64.66 3.13 1.73 4.22-.39-.15-.81-.22-1.23-.22-.96 0-1.88.38-2.56 1.06l-.94.94h-1z" fill="#ff826e"/></g><g><path d="m31.12 49.88c.54.54.88 1.29.88 2.12s-.34 1.58-.88 2.12c-.2.2-.43.38-.69.52-.42.23-.91.36-1.43.36-.31 0-.63 0-.94-.01-1.49-.01-2.97-.08-4.45-.18-2.85-.21-5.68-.57-8.49-1.1l-2.12-.4-1.86-.35c-2.87-.53-4.98-2.96-5.13-5.85l2.99-.11h2.34c.44 0 .88.05 1.3.14l7.69 1.71.67.15h1l.94-.94c.68-.68 1.6-1.06 2.56-1.06.42 0 .84.07 1.23.22.3.1.59.25.85.44.17.12.33.25.48.4l.94.94c.76 0 1.45.28 1.97.74.05.05.1.09.15.14z" fill="#ff826e"/></g><g><path d="m21.17 59.2c-.44 1.01.02 2.19 1.02 2.63.26.11.53.17.81.17h-10v-8.69l2.12.4c2.81.53 5.64.89 8.49 1.1z" fill="#ff826e"/></g><g><path d="m28.06 54.99v.01l-3.23 5.8c-.32.73-1.04 1.2-1.83 1.2-.28 0-.55-.06-.81-.17-1-.44-1.46-1.62-1.02-2.63l2.44-4.39c1.48.1 2.96.17 4.45.18z" fill="#969faa"/></g><g><path d="m31.72 48.4-.75 1.34c-.52-.46-1.21-.74-1.97-.74l-.94-.94c-.15-.15-.31-.28-.48-.4l7.87-14.16 1.28-2.31 3.42-6.16 1.02-1.83c.32-.73 1.04-1.2 1.83-1.2.28 0 .55.06.8.17 1.01.44 1.47 1.62 1.03 2.63l-1.17 2.1-3.41 6.15-5.2 9.35z" fill="#969faa"/></g><g><path d="m40.15 25.03-3.42 6.16-.15-.09c-1.61-1.15-3.41-2-5.3-2.51.08-.22.18-.44.29-.65 0 0 .42-.45 1.04-1.2 1.25-1.51 3.32-4.26 4.5-7.04.64 1.91 1.62 3.69 2.89 5.25z" fill="#ccd1d9"/></g><g><path d="m53.36 30h1.17c-1.33 5.52-5.36 9.99-10.61 11.94-.33-3.28-1.61-6.36-3.67-8.89l3.41-6.15c2.83 2.02 6.22 3.1 9.7 3.1z" fill="#ccd1d9"/></g><g><path d="m54.53 30h3.47c0 8.03-5.91 14.84-13.86 15.98l-.14.02v-2.4c0-.56-.03-1.11-.08-1.66 5.25-1.95 9.28-6.42 10.61-11.94z" fill="#e6e9ed"/></g><g><path d="m14 3c-1.77.77-3 1.95-3 4 0 1.57.74 2.96 1.88 3.88-.47 1.47-.84 3.15-.87 4.83-2.9-.86-5.01-3.54-5.01-6.71 0-3.87 3.13-7 7-7z" fill="#ccd1d9"/></g><g><path d="m36 2c3.87 0 7 3.13 7 7 0 3.17-2.11 5.85-5.01 6.71-.03-1.68-.4-3.36-.87-4.83 1.14-.92 1.88-2.31 1.88-3.88 0-2.05-1.23-3.23-3-4z" fill="#ccd1d9"/></g><g><path d="m25 23c-3.21 0-6.01 1.49-7.61 3.74-1.81-2.2-5.39-7.01-5.39-10.74 0-.1 0-.19.01-.29.03-1.68.4-3.36.87-4.83.21-.69.45-1.34.69-1.92.73-1.8 2.49-2.96 4.43-2.96 1.5 0 2.5.5 3.5 1s2 1 3.5 1c3 0 4-2 7-2 .97 0 1.9.29 2.67.8.77.52 1.39 1.26 1.76 2.16.24.58.48 1.23.69 1.92.47 1.47.84 3.15.87 4.83.01.1.01.19.01.29 0 1.17-.35 2.44-.89 3.7-1.18 2.78-3.25 5.53-4.5 7.04-1.6-2.25-4.4-3.74-7.61-3.74z" fill="#cf9e76"/></g><g><path d="m19 30.21c0-.79-.2-1.58-.57-2.27 0 0-.42-.45-1.04-1.2 1.6-2.25 4.4-3.74 7.61-3.74s6.01 1.49 7.61 3.74c-.62.75-1.04 1.2-1.04 1.2-.11.21-.21.43-.29.65-.18.52-.28 1.07-.28 1.62 0 .76-.18 1.49-.51 2.13-.22.47-.53.89-.89 1.26-.87.86-2.07 1.4-3.39 1.4h-2.42c-1.88 0-3.51-1.09-4.28-2.66-.33-.64-.51-1.37-.51-2.13z" fill="#ecc19c"/></g><g><path d="m34 12v2c0 2.21-1.79 4-4 4h-2.8l.34-2.53c.26-1.99 1.96-3.47 3.96-3.47z" fill="#969faa"/></g><g><path d="m22.46 15.47.34 2.53h-2.8c-2.21 0-4-1.79-4-4v-2h2.5c2 0 3.7 1.48 3.96 3.47z" fill="#969faa"/></g></g><g><path d="m53.357 29.001c-2.988 0-5.86-.841-8.371-2.425l.762-1.372c.321-.733.337-1.548.046-2.295-.292-.746-.856-1.335-1.587-1.655-.385-.168-.791-.254-1.207-.254-1.193 0-2.271.707-2.706 1.715l-.303.545c-.754-1.103-1.355-2.297-1.808-3.561.44-1.116.731-2.237.791-3.304 2.986-1.205 5.026-4.132 5.026-7.395 0-4.411-3.589-8-8-8h-1v2.654l.6.262c1.66.725 2.4 1.676 2.4 3.084 0 .675-.192 1.321-.516 1.901-.041-.105-.083-.217-.123-.316-.888-2.178-2.992-3.585-5.361-3.585-1.736 0-2.911.587-3.947 1.105-.96.481-1.789.895-3.053.895s-2.093-.414-3.053-.895c-1.036-.518-2.211-1.105-3.947-1.105-2.369 0-4.473 1.407-5.361 3.586-.04.099-.082.211-.123.315-.324-.58-.516-1.226-.516-1.901 0-1.408.74-2.359 2.4-3.084l.6-.262v-2.654h-1c-4.411 0-8 3.589-8 8 0 3.263 2.04 6.19 5.027 7.396.282 4.989 5.754 11.214 6.574 12.119.261.524.399 1.107.399 1.693 0 .571.086 1.121.241 1.642-.611.256-1.253.42-1.922.481l-1.751.159c-3.808.347-6.989 3.072-7.916 6.781l-1.434 5.734c-.145.578-.218 1.174-.218 1.771 0 3.508 2.503 6.523 5.951 7.17l1.049.197v8.857h10.99c.003 0 .006.001.009.001.005 0 .009-.001.013-.001h14.988v-8.816l1.095-.213c3.372-.654 5.798-3.509 5.902-6.968v-.169c8.03-1.501 14.003-8.602 14.003-16.833v-1zm-.157 1.994c-1.38 4.214-4.443 7.658-8.475 9.523-.485-2.729-1.617-5.318-3.29-7.547l2.579-4.644c2.763 1.72 5.911 2.639 9.186 2.668zm-9.797-7.909c.243.106.43.302.527.551.097.25.092.521.027.681l-13.352 24.035c-.366-.162-.753-.284-1.167-.329l-.59-.59 13.237-23.834c.214-.492.815-.737 1.318-.514zm-8.479 21.607 1.139 1.713-2.385.53zm-14.924-14.485c0-.955-.239-1.904-.692-2.745l-.146-.206c-.01-.011-.192-.211-.47-.533 1.511-1.714 3.81-2.724 6.308-2.724s4.797 1.01 6.309 2.724c-.278.323-.46.522-.47.533l-.146.206c-.454.841-.693 1.79-.693 2.745 0 2.091-1.701 3.792-3.792 3.792h-2.416c-2.091 0-3.792-1.701-3.792-3.792zm12 0c0-.111.029-.22.039-.331 1.185.41 2.308.963 3.363 1.643l-.511.92-1.209-.11c-.67-.061-1.312-.226-1.922-.481.154-.52.24-1.07.24-1.641zm6.926-5.03-2.552 4.593c-1.118-.71-2.302-1.296-3.549-1.739.894-1.032 2.756-3.311 4.208-5.924.525 1.084 1.156 2.11 1.893 3.07zm-.197-21.521c1.94.995 3.271 3.017 3.271 5.343 0 2.201-1.24 4.198-3.116 5.238-.128-1.067-.353-2.098-.623-3.045 1.112-1.122 1.739-2.616 1.739-4.193 0-1.316-.426-2.434-1.271-3.343zm-30.729 5.343c0-2.326 1.331-4.348 3.271-5.343-.845.909-1.271 2.027-1.271 3.343 0 1.577.627 3.071 1.739 4.193-.27.947-.495 1.978-.623 3.045-1.876-1.04-3.116-3.037-3.116-5.238zm6.491.341c.58-1.422 1.957-2.341 3.509-2.341 1.264 0 2.093.414 3.053.895 1.036.518 2.211 1.105 3.947 1.105s2.911-.587 3.947-1.105c.96-.481 1.789-.895 3.053-.895 1.552 0 2.929.919 3.508 2.34.681 1.67 1.492 4.181 1.492 6.66 0 2.966-2.589 6.813-4.411 9.156-1.31-1.383-3.035-2.362-4.957-2.833l.444-3.323h1.924c2.757 0 5-2.243 5-5v-3h-3.498c-2.496 0-4.626 1.865-4.956 4.34l-.893 6.697c-.218-.013-.433-.037-.653-.037s-.435.024-.653.037l-.893-6.697c-.33-2.475-2.46-4.34-4.956-4.34h-3.498v3c0 2.757 2.243 5 5 5h1.924l.443 3.322c-1.922.471-3.647 1.45-4.957 2.833-1.821-2.342-4.41-6.189-4.41-9.155 0-2.479.811-4.99 1.491-6.659zm13.851 7.659.186-1.396c.199-1.485 1.477-2.604 2.974-2.604h1.498v1c0 1.654-1.346 3-3 3zm-6.684 0h-1.658c-1.654 0-3-1.346-3-3v-1h1.498c1.497 0 2.775 1.119 2.974 2.604zm-14.658 29.776c0-.434.053-.866.158-1.285l1.434-5.735c.721-2.885 3.195-5.004 6.157-5.273l1.75-.159c.92-.083 1.805-.312 2.642-.678 1.056 1.424 2.745 2.354 4.651 2.354h2.416c1.906 0 3.595-.93 4.651-2.355.835.366 1.719.594 2.641.678l.328.03-6.606 11.889c-.779-.905-1.222-2.036-1.222-3.242v-3h-2v3c0 2.252-1.552 4.24-3.71 4.819l-6.324-1.406 1.201-1.805c.567-.854.867-1.847.867-2.872 0-1.386-.54-2.688-1.52-3.668l-.773-.773-1.414 1.414.773.773c.602.602.934 1.402.934 2.254 0 .63-.185 1.241-.533 1.766l-1.68 2.526c-.16-.011-.319-.026-.479-.026h-2.342v2h2.341c.364 0 .729.04 1.085.119l8.357 1.857 1.631.023 1.232-1.232c.991-.99 2.716-.99 3.707 0l1.232 1.232h.415c1.103 0 2 .897 2 2s-.897 2-2 2c-4.584 0-9.192-.429-13.696-1.272l-3.984-.747c-2.503-.47-4.32-2.66-4.32-5.206zm15.596 14.14c-.503-.221-.733-.811-.554-1.231l2.142-3.855c.736.047 1.471.086 2.207.111l-2.475 4.462c-.216.492-.826.731-1.32.513zm-8.596-6.398.936.175c2.328.437 4.683.764 7.048.983l-1.731 3.122c-.318.726-.318 1.508-.072 2.202h-6.181zm22 6.482h-10.134l2.782-5.007c.117.001.235.008.352.008.616 0 1.193-.152 1.715-.402l5.285-1.026zm2.714-8.991-5.904 1.147c.112-.368.19-.75.19-1.155 0-.897-.309-1.716-.81-2.384l.19-.342 5.193-1.154c.356-.079.721-.119 1.085-.119h2.342v-2h-2.341c-.149 0-.298.015-.447.024l-1.678-2.524c-.194-.291-.322-.623-.412-.963l4.241-7.637c1.705 2.567 2.637 5.603 2.637 8.702v2.395l-.002.973c-.075 2.49-1.836 4.561-4.284 5.037zm6.286-7.196v-1.209c0-.336-.024-.67-.043-1.004 5.034-2.109 8.824-6.363 10.333-11.598h1.678c-.45 6.716-5.383 12.408-11.968 13.811z"/><path d="m22 32h2c0-4.513-2.098-5-3-5v2c.687 0 1 1.555 1 3z"/><path d="m29 29v-2c-.902 0-3 .487-3 5h2c0-1.445.313-3 1-3z"/><circle cx="20" cy="44" r="1"/></g></g></svg>