<svg id="Capa_1" enable-background="new 0 0 512.076 512.076" height="512" viewBox="0 0 512.076 512.076" width="512" xmlns="http://www.w3.org/2000/svg"><g><g><path d="m76.038 502.038c38.42-38.42 60-96.52 60-150.85v-131.15c0-66.285 53.741-120 120-120 66.284 0 120 53.74 120 120v131.15c0 54.33 21.58 112.43 60 150.85-7.857 0-256.208 0-360 0z" fill="#eca9fc"/><circle cx="346.038" cy="40.038" fill="#eca9fc" r="30"/><path d="m256.038 160.038c33.14 0 60 26.86 60 60s-26.86 60-60 60-60-26.86-60-60 26.86-60 60-60z" fill="#eceeff"/><circle cx="166.038" cy="40.038" fill="#eca9fc" r="30"/></g><g><circle cx="256.038" cy="220.038" r="10"/><path d="m256.038 290.038c38.598 0 70-31.402 70-70s-31.402-70-70-70-70 31.402-70 70 31.401 70 70 70zm0-120c27.57 0 50 22.43 50 50s-22.43 50-50 50-50-22.43-50-50 22.429-50 50-50z"/><path d="m196.038 356.038h20v20c0 5.523 4.477 10 10 10s10-4.477 10-10v-20h40v20c0 5.523 4.477 10 10 10s10-4.477 10-10v-20h20c5.523 0 10-4.477 10-10s-4.477-10-10-10h-120c-5.523 0-10 4.477-10 10s4.477 10 10 10z"/><path d="m32.861 262.233c-17.619 12.914-39.547 28.986-30.923 56.771 10.545 33.947 86.808 51.837 122.237 59.446-5.959 44.346-25.98 87.288-55.209 116.516-2.86 2.86-3.715 7.161-2.167 10.898s5.194 6.173 9.239 6.173h360c4.044 0 7.691-2.437 9.239-6.173s.692-8.038-2.167-10.898c-29.228-29.227-49.249-72.167-55.208-116.512 8.953-1.923 17.484-3.914 25.454-5.944 5.352-1.363 8.585-6.807 7.222-12.159s-6.808-8.587-12.159-7.222c-6.987 1.779-14.437 3.53-22.235 5.231-.086-2.393-.145-4.785-.145-7.173v-131.15c0-19.49-4.392-38.705-12.745-56.151l43.625-25.189c4.783-2.762 6.421-8.877 3.66-13.661-2.762-4.783-8.878-6.421-13.661-3.66l-43.636 25.196c-8.641-12.579-19.343-23.41-31.508-32.12l11.507-34.521c.912.063 1.83.106 2.757.106 22.056 0 40-17.944 40-40s-17.944-40-40-40-40 17.944-40 40c0 14.049 7.287 26.421 18.273 33.558l-10.089 30.269c-14.895-7.47-31.241-12.105-48.183-13.424v-50.402c0-5.523-4.477-10-10-10s-10 4.477-10 10v50.404c-16.943 1.319-33.288 5.954-48.183 13.424l-10.089-30.269c10.986-7.137 18.273-19.509 18.273-33.558 0-22.056-17.944-40-40-40s-40 17.944-40 40 17.944 40 40 40c.928 0 1.845-.043 2.757-.106l11.507 34.521c-12.164 8.71-22.866 19.541-31.508 32.12l-43.636-25.196c-4.783-2.76-10.898-1.123-13.661 3.66-2.762 4.783-1.123 10.899 3.66 13.661l43.625 25.189c-8.352 17.445-12.745 36.66-12.745 56.151 0 0-.059 135.931-.146 138.324-90.123-19.646-103.056-39.5-104.854-45.289-3.979-12.819 4.15-20.42 23.646-34.71 17.251-12.644 36.804-26.976 36.804-52.326 0-46.598-62.647-95.823-65.313-97.896-4.361-3.388-10.643-2.602-14.032 1.759s-2.602 10.643 1.759 14.032c16.018 12.449 57.587 51.467 57.587 82.104-.002 15.213-13.907 25.405-28.629 36.196zm313.177-242.195c11.028 0 20 8.972 20 20s-8.972 20-20 20-20-8.972-20-20 8.972-20 20-20zm-200 20c0-11.028 8.972-20 20-20s20 8.972 20 20-8.972 20-20 20-20-8.972-20-20zm110 70c59.831 0 110 48.476 110 110v131.15c0 49.531 17.375 101.837 47.861 140.85h-64.384c-14.754-12.266-23.477-30.719-23.477-50 0-5.523-4.477-10-10-10s-10 4.477-10 10c0 18.085 5.872 35.613 16.31 50h-56.31v-50c0-5.523-4.477-10-10-10s-10 4.477-10 10v50h-56.31c10.438-14.387 16.31-31.915 16.31-50 0-5.523-4.477-10-10-10s-10 4.477-10 10c0 19.281-8.723 37.734-23.477 50h-64.385c30.497-39.026 47.861-91.337 47.861-140.85v-131.15c.001-60.315 48.732-110 110.001-110z"/><circle cx="454.038" cy="350.038" r="10"/><path d="m479.214 262.233c-14.722-10.791-28.627-20.982-28.627-36.195 0-30.562 41.572-69.632 57.587-82.104 4.36-3.389 5.148-9.671 1.759-14.032-3.389-4.36-9.672-5.148-14.032-1.759-2.667 2.073-65.313 51.298-65.313 97.896 0 25.35 19.553 39.682 36.804 52.326 19.496 14.29 27.624 21.891 23.646 34.708-.719 2.313-2.415 4.803-5.042 7.399-3.928 3.882-3.965 10.214-.083 14.142 3.878 3.924 10.21 3.969 14.142.083 4.988-4.929 8.38-10.208 10.084-15.693 8.622-27.785-13.306-43.857-30.925-56.771z"/></g></g></svg>