<svg height="512" viewBox="0 0 58 60" width="512" xmlns="http://www.w3.org/2000/svg"><g id="Page-1" fill="none" fill-rule="evenodd"><g id="008---Dragon-Costume" fill-rule="nonzero" transform="translate(0 -1)"><path id="Shape" d="m37 41v5.31c-.004118.4133422.0811629.8226901.25 1.2.4371735.9752494.7917506 1.9854594 1.06 3.02l.01.01c.4558503 1.7840721.6843283 3.6186163.68 5.46-.0032131 1.1414813-.4929893 2.2274377-1.3464624 2.9854441-.8534732.7580063-1.9896611 1.1161389-3.1235376.9845559-2.0297649-.2814197-3.538399-2.0208362-3.53-4.07v-.08c-1.3225312.2400242-2.6774688.2400242-4 0v.18c-.0013242 1.2084751-.5474417 2.3519401-1.4865425 3.1125342-.9391009.7605941-2.171075 1.0572363-3.3534575.8074658-1.8940078-.4351551-3.2169786-2.1474813-3.16-4.09-.001681-2.8616379.5943803-5.6920777 1.75-8.31.1678686-.381146.253073-.7935355.25-1.21v-5.31l-2.82 4.53-5.29-3.02 1.77-3.54c.6119879-1.2423862 1.50989-2.321925 2.62-3.15 1.5630335-1.1827003 3.4699362-1.8218463 5.43-1.82h12.58c1.9600638-.0018463 3.8669665.6372997 5.43 1.82 1.11011.828075 2.0080121 1.9076138 2.62 3.15l1.77 3.54-5.29 3.02z" fill="#a4c400"/><path id="Shape" d="m39 56c-.0032131 1.1414813-.4929893 2.2274377-1.3464624 2.9854441-.8534732.7580063-1.9896611 1.1161389-3.1235376.9845559-.3305198-.0358511-.6539761-.1200846-.96-.25 1.5283793-.6030899 2.5347206-2.0769441 2.54-3.72.0043283-1.8413837-.2241497-3.6759279-.68-5.46l-.01-.01c-.2682494-1.0345406-.6228265-2.0447506-1.06-3.02-.1688371-.3773099-.254118-.7866578-.25-1.2v-3.31c0-1.1045695.8954305-2 2-2h.89v5.31c-.004118.4133422.0811629.8226901.25 1.2.4371735.9752494.7917506 1.9854594 1.06 3.02l.01.01c.4558503 1.7840721.6843283 3.6186163.68 5.46z" fill="#90ac00"/><path id="Shape" d="m45 20c.0422834 2.0284799-.2240938 4.0515984-.79 6-2.08 6.79-8.1 8-15.21 8s-13.13-1.21-15.21-8c-.5659062-1.9484016-.8322834-3.9715201-.79-6-.1223275-2.8126873.4512947-5.612101 1.67-8.15 1.68 2 6.09 2.17 7.72 2.16 4.0072686 2.6533106 9.2127314 2.6533106 13.22 0 1.63.01 6.04-.16 7.72-2.16 1.2187053 2.537899 1.7923275 5.3373127 1.67 8.15z" fill="#60a917"/><path id="Shape" d="m43.33 11.85c-.6433472.6831678-1.4589608 1.1802741-2.361 1.439.7394703 2.1580245 1.0885908 4.4305244 1.031 6.711.0422834 2.0284799-.2240938 4.0515984-.79 6-1.932 6.306-7.264 7.8-13.71 7.978.494.014.993.022 1.5.022 7.11 0 13.13-1.21 15.21-8 .5659062-1.9484016.8322834-3.9715201.79-6 .1223275-2.8126873-.4512947-5.612101-1.67-8.15z" fill="#549414"/><path id="Shape" d="m13.79 26h-1.79c-1.6568542 0-2.99999991-1.3431458-2.99999991-3s1.34314571-3 2.99999991-3h1c-.0422834 2.0284799.2240938 4.0515984.79 6z" fill="#549414"/><path id="Shape" d="m41 22c0 7.19-2.58 10.24-5.15 11.39-2.2542544.452538-4.5512534.6570883-6.85.61-2.2987466.0470883-4.5957456-.157462-6.85-.61-2.57-1.15-5.15-4.2-5.15-11.39 0-3.82.67-6.47 1.73-8.29 1.2086361.2087595 2.4335017.3091584 3.66.3 4.0072686 2.6533106 9.2127314 2.6533106 13.22 0 1.2264983.0091584 2.4513639-.0912405 3.66-.3 1.07 1.82 1.73 4.47 1.73 8.29z" fill="#ffe0b2"/><path id="Shape" d="m39.27 13.71c-.9407151.1679685-1.8927363.2649089-2.848.29 1.1745211 2.4967694 1.7164607 5.2442449 1.578 8 0 7.19-2.58 10.24-5.15 11.39-1.7604069.3664973-3.5519979.5627351-5.35.586.5.013.993.024 1.5.024 2.2987466.0470883 4.5957456-.157462 6.85-.61 2.57-1.15 5.15-4.2 5.15-11.39 0-3.82-.66-6.47-1.73-8.29z" fill="#dfc49c"/><path id="Shape" d="m45.95 44.67c.1658843 1.4382565-.7256216 2.7877563-2.1136366 3.1994766-1.3880151.4117202-2.8711738-.2333941-3.5163634-1.5294766l-.5-.81 5.29-3.02c.4189659.6579342.7043866 1.3918732.84 2.16z" fill="#ffe0b2"/><path id="Shape" d="m18.18 45.53-.5.81c-.63616 1.3101754-2.1270947 1.9674337-3.5234152 1.5532499-1.3963204-.4141839-2.2877227-1.7781035-2.1065848-3.2232499.0371244-.3866018.1456257-.7629658.32-1.11l.52-1.05z" fill="#ffe0b2"/><path id="Shape" d="m43.34 38.97c-1.523813-3.0491065-4.6413284-4.9738334-8.05-4.97l-3-.0000057c3.4086716-.0038277 6.526187 1.9208992 8.05 4.9700057l1.77 3.54-3.077 1.756.787 1.264 5.29-3.02z" fill="#90ac00"/><path id="Shape" d="m49 23c0 1.6568542-1.3431458 3-3 3h-1.79c.5659062-1.9484016.8322834-3.9715201.79-6h1c1.6568542 0 3 1.3431458 3 3z" fill="#549414"/><path id="Shape" d="m50 60h-6c-2.0454379.1328124-4.0619141-.5381503-5.62-1.87.4051237-.6365451.62021-1.3754704.62-2.13.0043283-1.8413837-.2241497-3.6759279-.68-5.46 3.17 3.47 5.14 3.58 8.68 4.46 4 1 5 5 3 5z" fill="#60a917"/><path id="Shape" d="m47 55c-3.54-.88-5.51-.99-8.68-4.46.2392253.9450489.413961 1.9052603.523 2.874 1.6477201.7374451 3.379641 1.2700855 5.157 1.586 4 1 5 5 3 5h3c2 0 1-4-3-5z" fill="#549414"/><path id="Shape" d="m44 10c.0101221.6778015-.228204 1.3358661-.67 1.85-1.68 2-6.09 2.17-7.72 2.16-4.0072686 2.6533106-9.2127314 2.6533106-13.22 0-1.63.01-6.04-.16-7.72-2.16-.441796-.5141339-.6801221-1.1721985-.67-1.85 0-1.32 0-4.38 4.3-6.31-.7042406 1.45018698-.1364418 3.19767436 1.2857038 3.95694958 1.4221457.75927522 3.1901008.25883316 4.0032961-1.13318357.8131952-1.39201673.3808445-3.17784441-.9789999-4.04376601 2.1130119-.33592022 4.2505781-.49314339 6.39-.47 2.1394219-.02314339 4.2769881.13407978 6.39.47-1.3598444.8659216-1.7921951 2.65174928-.9789999 4.04376601.8131953 1.39201673 2.5811504 1.89245879 4.0032961 1.13318357 1.4221456-.75927522 1.9899444-2.5067626 1.2857038-3.95694958 4.3 1.93 4.3 4.99 4.3 6.31z" fill="#a4c400"/><path id="Shape" d="m39.7 3.69c.3561317.72533302.3970191 1.56551407.113 2.322.8463188 1.15138284 1.2659464 2.56121852 1.187 3.988.0101221.6778015-.228204 1.3358661-.67 1.85-1.68 2-6.09 2.17-7.72 2.16-1.5234438 1.0378219-3.2778879 1.6867259-5.11 1.89.4974953.0638663.9984295.097262 1.5.1 2.3537486.0194789 4.6582183-.6743024 6.61-1.99 1.63.01 6.04-.16 7.72-2.16.441796-.5141339.6801221-1.1721985.67-1.85 0-1.32 0-4.38-4.3-6.31z" fill="#90ac00"/><path id="Shape" d="m24 5c-.0009596 1.23436548-.7578911 2.34215296-1.9074974 2.79166854-1.1496064.44951559-2.4572097.14899623-3.2952124-.75732075-.8380028-.90631698-1.035337-2.23341815-.4972902-3.34434779h.01c.6156703-1.24711946 2.0077765-1.90755141 3.3631315-1.59551011 1.355355.31204131 2.3185192 1.51472357 2.3268685 2.90551011z" fill="#f5f5f5"/><path id="Shape" d="m40 5c.0006637 1.43988731-1.0217624 2.67717299-2.4359728 2.94788475s-2.8213014-.50150956-3.352453-1.83984951c-.5311517-1.33833996-.036543-2.86529548 1.1784258-3.63803524.4798893-.30913902 1.039163-.47240528 1.61-.47 1.6568542 0 3 1.34314575 3 3z" fill="#f5f5f5"/><circle id="Oval" cx="23" cy="24" fill="#f5f5f5" r="2"/><circle id="Oval" cx="35" cy="24" fill="#f5f5f5" r="2"/><path id="Shape" d="m33 47c0 3.59-1.791 5-4 5s-4-1.41-4-5 1.791-8 4-8 4 4.41 4 8z" fill="#ffdc00"/><path id="Shape" d="m17.28 35.82c-1.11011.828075-2.0080121 1.9076138-2.62 3.15l-2.29 4.59c-.1743743.3470342-.2828756.7233982-.32 1.11-1.3283237-.5226854-2.82381464-.4008306-4.05.33-2-5-7-3-7-3 .41299548-5.1139783 3.43824906-9.6518587 8-12 1.6789525 3.1449944 4.7522702 5.3052249 8.28 5.82z" fill="#60a917"/><path id="Shape" d="m57 42s-5-2-7 3c-1.2261854-.7308306-2.7216763-.8526854-4.05-.33-.0371244-.3866018-.1456257-.7629658-.32-1.11l-2.29-4.59c-.6119879-1.2423862-1.50989-2.321925-2.62-3.15 3.5277298-.5147751 6.6010475-2.6750056 8.28-5.82 4.5617509 2.3481413 7.5870045 6.8860217 8 12z" fill="#60a917"/><path id="Shape" d="m49 30c-.2373982.4739521-.5108701.9289586-.818 1.361 3.2347936 2.5131828 5.314705 6.2285985 5.766 10.3 1.0298646-.1235607 2.0743522-.0075445 3.052.339-.4129955-5.1139783-3.4382491-9.6518587-8-12z" fill="#549414"/><g fill="#000"><path id="Shape" d="m23 21c-1.6568542 0-3 1.3431458-3 3s1.3431458 3 3 3 3-1.3431458 3-3-1.3431458-3-3-3zm0 4c-.5522847 0-1-.4477153-1-1s.4477153-1 1-1 1 .4477153 1 1-.4477153 1-1 1z"/><path id="Shape" d="m35 27c1.6568542 0 3-1.3431458 3-3s-1.3431458-3-3-3-3 1.3431458-3 3 1.3431458 3 3 3zm0-4c.5522847 0 1 .4477153 1 1s-.4477153 1-1 1-1-.4477153-1-1 .4477153-1 1-1z"/><path id="Shape" d="m31.832 28.555c.1982824-.297245.2229246-.6776931.0646441-.9980331-.1582805-.3203401-.4754371-.5319049-.832-.555s-.6983617.1457881-.8966441.4430331c-.2864578.3548898-.718817.5601757-1.1748866.5578409-.4560695-.0023348-.8863042-.2120367-1.1691134-.5698409-.3098317-.4572918-.9317082-.5768317-1.389-.267-.4572918.3098318-.5768317.9317082-.267 1.389.6584967.9067512 1.7113682 1.4433581 2.832 1.4433581s2.1735033-.5366069 2.832-1.4433581z"/><path id="Shape" d="m29 38c-3.1 0-5 5.242-5 9s1.869 6 5 6 5-2.243 5-6-1.9-9-5-9zm0 13c-2.479 0-3-2.175-3-4 0-3.473 1.745-7 3-7s3 3.527 3 7c0 1.825-.521 4-3 4z"/><path id="Shape" d="m1.367 42.93c1.07496829-.4813541 2.30223559-.4913229 3.38488138-.0274946 1.08264579.4638282 1.92204578 1.3592008 2.31511862 2.4694946.11399407.2768921.34519293.4887697.63095703.578228.28576409.0894583.59650883.0472358.84804297-.115228.75509207-.4377779 1.6430468-.5876647 2.5-.422.1019863 1.1439876.697701 2.1866498 1.6314233 2.8554332.9337224.6687835 2.112638.8972094 3.2285767.6255668 1.1287163-.254165 2.0863194-.9963624 2.614-2.026l1.48-2.368c0 1.861.052 2.131-.16 2.6-1.2169461 2.7475902-1.8437864 5.7199717-1.84 8.725-.0755932 2.5966461 1.8498696 4.8186442 4.4308573 5.1132418 2.5809876.2945976 4.9576452-1.4363505 5.4691427-3.9832418.7370727.0610176 1.4779273.0610176 2.215 0 .3465933 1.8129849 1.6684635 3.2850577 3.4338406 3.8240241s3.6840485.056225 4.9841594-1.2540241c1.6296666 1.0367881 3.536998 1.5513873 5.467 1.475h6c1.0243177.0429974 1.8991427-.7319737 1.98-1.754.233-1.889-1.615-4.435-4.739-5.217-3.562-.884-5.188-.974-8.04-4.01-.759-2.752-1.2-2.826-1.2-3.709v-1.81l1.424 2.285c.7886917 1.5872006 2.5320844 2.4614062 4.2757949 2.1440519 1.7437106-.3173544 3.0673031-1.7497498 3.2462051-3.5130519.8564812-.1661352 1.7441485-.0177173 2.5.418.2507035.1683369.5640502.2143695.8525759.1252489.2885256-.0891207.5213276-.3038493.6334241-.5842489.3926126-1.1106679 1.2319021-2.0064813 2.3146622-2.4705484 1.0827601-.4640672 2.3102734-.4540782 3.3853378.0275484.3263254.1304175.697158.0799723.9767885-.1328746s.4270129-.5568526.3882115-.9061254c-.4325532-5.478723-3.6927874-10.3345764-8.6-12.809-.4868604-.2089743-1.052212-.0019565-1.289.472-1.466479 2.7391133-4.107142 4.6553075-7.166 5.2-.7184653-.4909288-1.4985201-.8849909-2.32-1.172 2.9891492-1.1342298 5.3105387-3.5514413 6.323-6.584h1.054c1.4290624-.0037513 2.7475692-.7696133 3.4588517-2.0090932.7112824-1.23948.7072799-2.7642714-.0105-4.0000001s-2.0402893-1.994658-3.4693517-1.9909067c-.0104278-2.4355033-.5209766-4.8429107-1.5-7.073.3434275-.5839488.5233861-1.2495541.521-1.927 0-1.346-.013-4.87-4.6-7.077-1.0662536-1.78103096-3.3303072-2.43108845-5.179-1.487-4.1268091-.58350944-8.3151909-.58350944-12.442 0-1.8486928-.94408845-4.1127464-.29403096-5.179 1.487-4.587 2.207-4.6 5.731-4.6 7.077-.0020832.6775388.1782226 1.3431504.522 1.927-.9793671 2.2300163-1.4902569 4.6374267-1.501 7.073-1.4290624-.0037513-2.75157176.755178-3.46935166 1.9909067-.71777991 1.2357287-.72178249 2.7605201-.0105 4.0000001.71128248 1.2394799 2.02978926 2.0053419 3.45885166 2.0090932h1.054c1.0130678 3.0337835 3.336107 5.4515507 6.327 6.585-.8214799.2870091-1.6015347.6810712-2.32 1.172-3.058858-.5446925-5.699521-2.4608867-7.166-5.2-.236788-.4739565-.80213961-.6809743-1.289-.472-4.9072126 2.4744236-8.16744676 7.330277-8.6 12.809-.03693438.3477395.11046314.6895114.38871584.9013188.27825271.2118073.64693404.2628772.97228416.1346812zm14.09 4.017c-.7959928.1842577-1.6242602-.1321564-2.0946575-.8001997-.4703974-.6680433-.4891175-1.5544937-.0473425-2.2418003l3.474 1.983-.006.009c-.2619587.5313146-.7487843.91681-1.326 1.05zm31.3 9.023c2.292.573 3.321 2.3 3.239 3.03h-5.996c-1.5368294.0606932-3.0556513-.3484888-4.354-1.173.2315904-.5813935.3516809-1.2011828.354-1.827-.0005191-.8966428-.0532752-1.7924938-.158-2.683 2.27 1.723 4.203 1.983 6.916 2.653zm-8.908-15.5c-.2360635-.3792992-.6950819-.5559997-1.1245463-.4328974s-.7251726.5161387-.7244537.9628974c0 5.668-.111 5.943.339 6.921 1.1179367 2.5454995 1.6840264 5.2989245 1.661 8.079.003523 1.5399114-1.1649536 2.829775-2.6977213 2.9779737-1.5327676.1481986-2.9267157-.893912-3.2182787-2.4059737.5985581-.1641419 1.1530022-.4596404 1.623-.865.376705-.3790362.3820322-.9894468.012-1.375-.3751939-.3909869-.9912049-.4187074-1.4-.063-1.173.977-5.452.969-6.633 0-.3973315-.3792316-1.0261618-.3670116-1.4084598.0273705-.3822979.394382-.3749492 1.0232882.0164598 1.4086295.4756103.4098108 1.0370437.707784 1.643.872-.1536841.7911156-.6192023 1.4871296-1.2916883 1.9312526-.6724861.4441229-1.4953804.5990018-2.2833117.4297474-1.4225522-.3429122-2.4089089-1.6374532-2.362-3.1-.0048318-2.7239408.5616967-5.4186132 1.663-7.91.446-1 .337-1.246.337-6.928.0005447-.4470377-.2956799-.8401329-.7255527-.9628209-.4298729-.122688-.8889559.0548383-1.1244473.4348209l-2.3 3.715-3.64-2.075 1.346-2.7c1.3465484-2.7160801 4.1224944-4.4280558 7.154-4.412h12.58c3.0328525-.0150232 5.8093357 1.6989847 7.155 4.417l1.345 2.7-3.632 2.073zm-19.849-18.47c-.1021665-2.4583169.3332947-4.9093217 1.276-7.182.9032565.1186323 1.8130055.1810857 2.724.187v.995c.0324723.5217472.4613229.9304441.9840281.937784s.9628624-.3891543 1.0099719-.909784c.6499561.2654956 1.3209561.4762284 2.006.63v.342c.0110457.5522847.4677153.9910457 1.02.98s.9910457-.4677153.98-1.02c1.921.141 2-.106 2 .04 0 .5522847.4477153 1 1 1s1-.4477153 1-1v-.342c.6850439-.1537716 1.3560439-.3645044 2.006-.63.0471095.5206297.4872667.9171239 1.0099719.909784s.9515558-.4160368.9840281-.937784v-.995c.9109945-.0059143 1.8207435-.0683677 2.724-.187.9427053 2.2726783 1.3781665 4.7236831 1.276 7.182 0 6.856-2.416 9.456-4.5 10.43-4.299394.7669956-8.700606.7669956-13 0-2.084-.974-4.5-3.574-4.5-10.43zm23.216 23.885 3.469-1.98c.4006495.6222123.4249682 1.414805.0632186 2.0604097s-1.050432 1.0386838-1.7902864 1.0218412c-.7398544-.0168425-1.409936-.4408533-1.7419322-1.1022509zm14.565-5.226c-1.5097094-.240021-3.0549815.0831267-4.342.908.4753028-3.1332946.2140643-6.3342374-.763-9.349 2.6727704 2.0981451 4.4879858 5.099562 5.105 8.441zm-7.163-8.222c1.843 4.16.711 9.964.46 11.105-.790198-.214145-1.6180066-.250686-2.424-.107-.183-.45.34.62-2.419-4.911-.3959402-.7895532-.8946001-1.5232524-1.483-2.182 2.2984495-.6929912 4.3398157-2.05193 5.866-3.905zm-8.286-2.181c2.238-4.355 2.095-11.837.393-15.851.7872859-.2060971 1.5407152-.5247132 2.237-.946.7504451 2.0966349 1.1024871 4.3150424 1.038 6.541 0 5.148-1.311 8.324-3.668 10.256zm7.668-7.256c0 1.1045695-.8954305 2-2 2h-.489c.2763371-1.3165111.433307-2.6552734.469-4 .5334878-.0039929 1.0465687.204797 1.4256843.5801589.3791155.3753619.5930002.88634.5943157 1.4198411zm-11-20c1.1045695 0 2 .8954305 2 2s-.8954305 2-2 2-2-.8954305-2-2 .8954305-2 2-2zm-16 0c1.1045695 0 2 .8954305 2 2s-.8954305 2-2 2-2-.8954305-2-2 .8954305-2 2-2zm-3.943 2.56c.2174138 1.56587566 1.3399093 2.85516973 2.8609475 3.2860734 1.5210383.43090367 3.1529758-.07807124 4.1593819-1.29724393s1.1969594-2.91798546.4856706-4.32982947c1.058-.112 2.207-.178 3.437-.2v.981c0 .55228475.4477153 1 1 1s1-.44771525 1-1v-.983c1.23.024 2.379.09 3.437.2-.7107875 1.41160281-.5201891 3.10986445.4858262 4.32878798 1.0060153 1.21892352 2.6373111 1.72813297 4.1580953 1.29795061s2.6436292-1.71845226 2.8620785-3.28373859c1.4216833 1.0128566 2.2035868 2.70058221 2.057 4.44 0 1.979-2.873 2.638-4.846 2.868.3371008-.4769571.604459-.9995516.794-1.552.1128959-.3394023.0361471-.7132523-.201336-.9807242-.237483-.2674719-.599621-.38793038-.95-.316-.350379.0719305-.6357681.3253219-.748664.6647242-1.223 3.667-8.375 6-13.578 2.851-1.1492652-.6259832-2.0429974-1.6347048-2.526-2.851-.1128959-.3394023-.398285-.5927937-.748664-.6647242-.350379-.07193038-.712517.0485281-.95.316-.2374831.2674719-.3142319.6413219-.201336.9807242.1895294.5527648.4568851 1.075691.794 1.553-1.954-.23-4.838-.886-4.838-2.869-.1465868-1.73941779.6353167-3.4271434 2.057-4.44zm-5.057 19.44c-.7145312-.0035726-1.3728793-.3880717-1.7270509-1.0086602-.35417156-.6205885-.35035959-1.3829842.01-2.0000001.3603596-.6170158 1.0225197-.9949124 1.7370509-.9913397.035693 1.3447266.1926629 2.6834889.469 4zm2-5c-.0644871-2.2259576.2875549-4.4443651 1.038-6.541.6962848.4212868 1.4497141.7399029 2.237.946-1.688 3.981-1.866 11.454.393 15.851-2.357-1.932-3.668-5.108-3.668-10.256zm1.248 16.342c-1.288 1.452-1.7 2.621-3.77 6.768-.054.106-.087.217-.132.326-.8058886-.1444782-1.63379941-.1082742-2.424.106-.251-1.141-1.383-6.945.461-11.1 1.5260358 1.8516923 3.5671696 3.208968 5.865 3.9zm-7.924-4.124c-.97702605 3.014414-1.23860143 6.2149464-.764 9.348-1.28655516-.8250744-2.83171854-1.1479178-4.341-.907.6171891-3.3413715 2.43236974-6.3427309 5.105-8.441z"/></g></g></g></svg>