<svg id="Capa_1" enable-background="new 0 0 512 512" height="512" viewBox="0 0 512 512" width="512" xmlns="http://www.w3.org/2000/svg"><g><g><path d="m225.094 30.906h-217.368v5.014c0 34.137 27.674 61.811 61.811 61.811l-61.811-.004v5.014c0 34.137 27.674 61.811 61.811 61.811h-61.811v5.014c0 34.137 27.674 61.811 61.811 61.811h-61.811v5.014c0 34.137 27.674 61.811 61.811 61.811h-61.811v5.014c0 34.137 27.674 61.811 61.811 61.811l186.463 10 10-200.063-10-113.153c0-17.069-13.837-30.905-30.906-30.905z" fill="#c47e4e"/><path d="m504.274 35.919v-5.014h-217.368c-17.069.001-30.906 13.837-30.906 30.906v313.216l186.463-10c34.137 0 61.811-27.674 61.811-61.811v-5.014h-61.811c34.137 0 61.811-27.674 61.811-61.811v-5.014h-61.811c34.137 0 61.811-27.674 61.811-61.811v-5.014h-61.811c34.137 0 61.811-27.674 61.811-61.811v-5.014l-61.811.003c34.137 0 61.811-27.673 61.811-61.811z" fill="#9b5e34"/></g><g><path d="m80.653 363.997c-34.137 0-61.811 27.674-61.811 61.811v86.192h237.158l10-78.135-10-69.868z" fill="#ebe1dc"/><path d="m493.158 425.808c0-34.137-27.674-61.811-61.811-61.811h-175.347v148.003h237.158z" fill="#c8beb9"/></g><path d="m121.991 141.392v-141.392c34.137 0 61.811 27.674 61.811 61.811v27.771z" fill="#d19a75"/><path d="m390.009 141.392v-141.392c-34.137 0-61.811 27.674-61.811 61.811v27.771z" fill="#c47e4e"/><g><g><path d="m121.991 314.549v181.289h5.028c34.229 0 61.977-27.748 61.977-61.977v61.977h5.028c34.227 0 61.974-27.746 61.977-61.972l9.999-78.866-10-77.41z" fill="#d19a75"/><path d="m390.009 314.549-134.009-36.959v156.275c0-.002 0-.003 0-.005 0 34.229 27.748 61.977 61.977 61.977h5.028v-61.977c0 34.229 27.748 61.977 61.977 61.977h5.028z" fill="#c47e4e"/></g><path d="m188.995 81.737c-37.006 0-67.005 29.999-67.005 67.005v165.807c0 39.827 32.286 72.113 72.113 72.113h61.897l10-141.654-10-96.271c-.003-37.004-30.001-67-67.005-67z" fill="#f2d1a5"/><path d="m390.009 148.741c0-37.006-29.999-67.005-67.004-67.005-37.006 0-67.005 29.999-67.005 67.005 0-.001 0-.003 0-.005v237.925h61.897c39.827 0 72.113-32.286 72.113-72.113z" fill="#f2bb88"/></g><path d="m201.082 277.309h30v47.542h-30z" fill="#fff5f5"/><path d="m280.918 277.309h30v47.542h-30z" fill="#ebe1dc"/><g><path d="m187.493 309.851v30h68.507l10-15-10-15z" fill="#d6995c"/><path d="m256 309.851h68.507v30h-68.507z" fill="#c48958"/></g><path d="m188.976 189.964h30v44.193h-30z" fill="#c47e4e"/><path d="m293.024 189.964h30v44.193h-30z" fill="#9b5e34"/><g><path d="m256 204.964h-87.651v-30h87.651l10 15z" fill="#d19a75"/></g><g><path d="m256 174.964h87.651v30h-87.651z" fill="#c47e4e"/></g></g></svg>